<svg width="133" height="31" viewBox="0 0 133 31" fill="none" xmlns="http://www.w3.org/2000/svg">
<path d="M64.7991 15.8479C65.5584 16.7722 65.9391 17.9189 65.9391 19.2879C65.9391 20.5666 65.5892 21.6956 64.8893 22.6684C64.1894 23.6434 63.1066 24.4071 61.643 24.9617C60.1794 25.5164 58.3417 25.7937 56.132 25.7937H42.5327V4.29102H56.5678C58.4077 4.29102 59.9659 4.52651 61.2468 4.9953C62.5256 5.46629 63.4896 6.10895 64.1344 6.92988C64.7793 7.75081 65.1006 8.68398 65.1006 9.73381C65.1006 10.7924 64.7859 11.686 64.1564 12.4101C63.527 13.1342 62.6026 13.647 61.3833 13.9463C62.8997 14.2918 64.0398 14.9235 64.7991 15.8479ZM50.0597 9.30243V12.8723H54.4835C55.2935 12.8723 55.9053 12.727 56.3213 12.4365C56.735 12.146 56.9441 11.7256 56.9441 11.1776C56.9441 10.5371 56.7438 10.0661 56.3455 9.76022C55.9449 9.4565 55.3067 9.30243 54.4263 9.30243H50.0597V9.30243ZM56.9045 20.265C57.4195 19.9151 57.677 19.3847 57.677 18.676C57.677 18.0554 57.4371 17.5932 56.9573 17.2895C56.4775 16.9835 55.7336 16.8317 54.7234 16.8317H50.0597V20.7911H54.5121C55.5928 20.7889 56.3895 20.615 56.9045 20.265Z" fill="white"/>
<path d="M89.6429 7.83423V25.7979H82.1158V22.0938C81.515 23.5133 80.6104 24.5918 79.4021 25.3335C78.1917 26.073 76.7325 26.4427 75.0246 26.4427C72.6256 26.4427 70.7967 25.7737 69.5378 24.4333C68.2789 23.093 67.6494 21.1738 67.6494 18.6758V7.83423H75.1764V16.8315C75.1764 18.2004 75.4472 19.2084 75.9864 19.8533C76.5256 20.4981 77.3707 20.8195 78.5196 20.8195C79.7103 20.8195 80.606 20.4695 81.2113 19.7696C81.8165 19.0698 82.118 18.0397 82.118 16.6796V7.83203H89.6429V7.83423Z" fill="white"/>
<path d="M106.748 7.63877C107.217 7.77963 107.622 7.9535 107.963 8.16478V14.8071C107.624 14.587 107.192 14.4043 106.673 14.259C106.154 14.1138 105.568 14.0411 104.919 14.0411C103.299 14.0411 102.045 14.5341 101.155 15.5179C100.266 16.5017 99.8217 18.0446 99.8217 20.1442V25.7983H92.3101V7.83465H99.672V13.5327C100.081 11.4441 100.744 9.90348 101.659 8.91529C102.575 7.92489 103.746 7.42969 105.176 7.42969C105.753 7.42969 106.277 7.50012 106.748 7.63877Z" fill="white"/>
<path d="M129.019 8.2925C130.293 9.12663 131.275 10.2755 131.966 11.7413C132.655 13.2049 133 14.8533 133 16.6823C133 18.5926 132.63 20.2829 131.891 21.7575C131.151 23.2321 130.126 24.3766 128.816 25.1909C127.507 26.0052 126.012 26.4124 124.333 26.4124C122.533 26.4124 121.005 26.058 119.744 25.3472C118.485 24.6385 117.515 23.5688 116.835 22.1383V25.7961H109.352V3.68164H116.835V12.2123C117.354 10.533 118.261 9.25208 119.557 8.36733C120.851 7.48257 122.513 7.04019 124.542 7.04019C126.252 7.04019 127.744 7.45616 129.019 8.2925ZM123.14 20.1597C123.774 19.8207 124.265 19.3497 124.61 18.7511C124.956 18.1503 125.128 17.4724 125.128 16.7109C125.128 15.9516 124.96 15.2737 124.626 14.6795C124.291 14.0852 123.809 13.6186 123.178 13.2841C122.548 12.9496 121.817 12.7823 120.988 12.7823C120.147 12.7823 119.412 12.9518 118.776 13.2929C118.142 13.6318 117.653 14.105 117.314 14.7103C116.975 15.3155 116.804 16.0022 116.804 16.7725C116.804 17.5318 116.969 18.2075 117.299 18.7973C117.629 19.3872 118.107 19.8471 118.732 20.1773C119.357 20.5074 120.09 20.6725 120.928 20.6725C121.769 20.6703 122.506 20.4986 123.14 20.1597Z" fill="white"/>
<path d="M35.5185 7.06643L31.9464 3.06081C31.8716 2.98158 31.7747 2.91335 31.6559 2.87594L22.4122 0.0279929C22.1525 -0.051239 21.8708 0.0411982 21.7101 0.261287L16.1198 7.77291C16.0714 7.7355 16.0142 7.71129 15.9592 7.69368L6.71106 4.85013C6.45135 4.7709 6.17404 4.86334 6.00898 5.07903L0.128209 12.9846C0.00495905 13.1519 -0.032456 13.3654 0.0291688 13.5634C0.0907936 13.7615 0.244856 13.9156 0.442935 13.9772L1.68203 14.3712V19.5234C1.68203 19.8074 1.86691 20.0605 2.13762 20.1397L11.4122 22.937C11.4738 22.9546 11.5354 22.9678 11.597 22.9678C11.6763 22.9678 11.7577 22.9502 11.8303 22.9194L14.8323 21.7309V26.6477C14.8323 26.9316 15.0172 27.1847 15.2879 27.264L24.569 30.0613C24.6307 30.0789 24.6923 30.0921 24.7539 30.0921C24.8332 30.0921 24.9146 30.0745 24.9872 30.0437L32.0565 27.2463C32.303 27.1473 32.4636 26.914 32.4636 26.6477V20.3532L32.8026 20.1485C33.2053 19.9064 33.289 19.354 32.9764 19.004L30.9626 16.7481L34.6051 15.3065C34.845 15.2075 35.0057 14.9742 35.0057 14.7079V8.41777L35.3468 8.21309C35.7496 7.97099 35.8332 7.41857 35.5185 7.06643ZM26.6533 14.063L19.912 11.9854L18.6619 10.5812V9.96499L25.4582 12.1329C25.5198 12.1571 25.5881 12.1637 25.6497 12.1637C25.8522 12.1637 26.0502 12.0712 26.1735 11.8996L26.6533 11.2283V14.063ZM10.9566 21.4624L2.95635 19.048V14.7827L9.75268 16.9528C9.82091 16.9704 9.88914 16.9836 9.95076 16.9836C10.1532 16.9836 10.3447 16.8846 10.468 16.7195L10.9544 16.0482V21.4624H10.9566ZM12.2375 21.3832V14.2787L15.8249 9.32894L18.0258 11.7939V13.7351L13.2785 20.1089C13.1553 20.2739 13.1244 20.4896 13.1861 20.6877C13.2169 20.7867 13.2719 20.8726 13.3401 20.9474L12.2375 21.3832ZM24.1135 28.5867L16.1154 26.1701V21.907L22.9118 24.0771C22.98 24.0947 23.0416 24.1079 23.1099 24.1079C23.3123 24.1079 23.5038 24.0088 23.6271 23.8438L24.1135 23.1725V28.5867V28.5867ZM31.1827 18.9182V26.2141L25.3966 28.5075V21.4008L28.984 16.4532L31.1827 18.9182ZM33.7269 14.2721L30.0471 15.7269L29.4066 15.005C29.3274 14.9192 29.2283 14.851 29.1161 14.8201L27.932 14.457V9.46539L31.5194 4.5112L33.7247 6.98279V14.2721H33.7269Z" fill="white"/>
</svg>
